<svg xmlns="http://www.w3.org/2000/svg" viewBox="0 0 220 220" role="img" aria-labelledby="brandMarkTitle brandMarkDesc">
  <title id="brandMarkTitle">Gear Up Motor Driving School brand mark</title>
  <desc id="brandMarkDesc">A black gear with a red confidence arrow and cream center.</desc>
  <g fill="#111111">
    <rect x="99" y="7" width="22" height="40" rx="8"/>
    <rect x="99" y="173" width="22" height="40" rx="8"/>
    <rect x="173" y="99" width="40" height="22" rx="8"/>
    <rect x="7" y="99" width="40" height="22" rx="8"/>
    <rect x="99" y="7" width="22" height="40" rx="8" transform="rotate(45 110 110)"/>
    <rect x="99" y="7" width="22" height="40" rx="8" transform="rotate(90 110 110)"/>
    <rect x="99" y="7" width="22" height="40" rx="8" transform="rotate(135 110 110)"/>
    <rect x="99" y="7" width="22" height="40" rx="8" transform="rotate(180 110 110)"/>
    <rect x="99" y="7" width="22" height="40" rx="8" transform="rotate(225 110 110)"/>
    <rect x="99" y="7" width="22" height="40" rx="8" transform="rotate(270 110 110)"/>
    <rect x="99" y="7" width="22" height="40" rx="8" transform="rotate(315 110 110)"/>
  </g>
  <circle cx="110" cy="110" r="72" fill="#111111"/>
  <circle cx="110" cy="110" r="58" fill="#F5222A"/>
  <circle cx="110" cy="110" r="42" fill="#F7F1E3" stroke="#111111" stroke-width="6"/>
  <circle cx="110" cy="110" r="33" fill="#F5D547" opacity="0.35"/>
  <circle cx="110" cy="110" r="11" fill="#111111"/>
  <path d="M103 71 157 110 132 110 132 151 86 118 108 118 108 86 103 71Z" fill="#F5222A" stroke="#111111" stroke-width="4" stroke-linejoin="round"/>
  <path d="M59 71a66 66 0 0 1 102-11" fill="none" stroke="#F5D547" stroke-linecap="round" stroke-width="8"/>
</svg>
